# xmcd CD database file
#
# Track frame offsets:
#	150
#	18320
#	37040
#	55405
#	71515
#	92702
#	113267
#	126525
#	141770
#	157940
#
# Disc length: 2236 seconds
#
# Revision: 1
# Processed by: cddbd v1.5.2PL0 Copyright (c) Steve Scherf et al.
# Submitted via: CDex 1.70beta3
#
DISCID=8208ba0a
DTITLE=Various Artist - 最新テレビまんが・テーマソングファイル～SFヒーロー編～　Vol.1
DYEAR=2000
DGENRE=アニメ
TTITLE0=きただにひろし/ウィーアー！
TTITLE1=岡村明美/MUSIC
TTITLE2=田中昌之/仮面ライダークウガ！
TTITLE3=橋本仁/青空になる
TTITLE4=Cover Boys(コロムビア・バージョン)/おはよう。
TTITLE5=ドンキー＆ディディー/明日になったら…
TTITLE6=ドンキー＆ディディー/バナナ天国
TTITLE7=両津勘吉とこち亀うぃ～ん合唱団/おいでよ亀有
TTITLE8=三浦理恵子／三橋加奈子/毎日、ノープロブレム
TTITLE9=堀江美都子／森の木児童合唱団/ぼくらのヒカリアン
EXTD=YEAR: 2000
EXTT0=
EXTT1=
EXTT2=
EXTT3=
EXTT4=
EXTT5=
EXTT6=
EXTT7=
EXTT8=
EXTT9=
PLAYORDER=
